<svg width="385" height="87" viewBox="0 0 385 87" fill="none" xmlns="http://www.w3.org/2000/svg">
<path d="M0.224 75.656H3.936C5.64267 75.656 6.83733 75.272 7.52 74.504C8.288 73.736 8.672 72.4987 8.672 70.792V16.264C8.672 14.6427 8.288 13.4907 7.52 12.808C6.83733 12.04 5.64267 11.656 3.936 11.656H0.224V2.184H61.536V18.696H49.248V16.136C49.248 14.5147 48.864 13.3627 48.096 12.68C47.328 11.912 46.0907 11.528 44.384 11.528H22.24V38.792H44.384V48.264H22.24V70.92C22.24 72.6267 22.5813 73.864 23.264 74.632C24.032 75.3147 25.2267 75.656 26.848 75.656H30.688V85H0.224V75.656ZM68.383 2.056H82.847V13.832H68.383V2.056ZM60.319 75.528H64.031C65.7377 75.528 66.9323 75.144 67.615 74.376C68.383 73.608 68.767 72.3707 68.767 70.664V37.768C68.767 36.1467 68.383 34.9947 67.615 34.312C66.9323 33.544 65.7377 33.16 64.031 33.16H60.319V23.56H82.463V70.792C82.463 72.4133 82.847 73.608 83.615 74.376C84.383 75.144 85.5777 75.528 87.199 75.528H90.911V85H60.319V75.528ZM98.099 75.528H101.299C103.006 75.528 104.2 75.1867 104.883 74.504C105.651 73.736 106.035 72.4987 106.035 70.792V37.896C106.035 36.1893 105.694 34.9947 105.011 34.312C104.328 33.544 103.134 33.16 101.427 33.16H98.739V23.56H115.123L115.891 32.136C118.792 28.4667 122.078 25.8213 125.747 24.2C129.502 22.4933 134.024 21.64 139.315 21.64C152.968 21.64 159.795 28.7227 159.795 42.888V70.792C159.795 72.4987 160.136 73.736 160.819 74.504C161.587 75.1867 162.824 75.528 164.531 75.528H168.115V85H146.099V43.016C146.099 38.7493 145.203 35.6773 143.411 33.8C141.619 31.8373 138.718 30.856 134.707 30.856C130.355 30.856 126.771 32.0933 123.955 34.568C121.139 37.0427 119.731 40.4987 119.731 44.936V70.792C119.731 72.4987 120.03 73.736 120.627 74.504C121.31 75.1867 122.462 75.528 124.083 75.528H127.411V85H98.099V75.528ZM202.104 86.92C193.656 86.92 187.043 84.1893 182.264 78.728C177.571 73.2667 175.224 65.4587 175.224 55.304C175.224 44.6373 177.571 36.36 182.264 30.472C186.957 24.584 193.741 21.64 202.616 21.64C207.821 21.64 211.96 22.28 215.032 23.56C218.189 24.84 220.792 26.9733 222.84 29.96V15.24C222.84 13.192 222.499 11.7413 221.816 10.888C221.133 10.0347 219.811 9.60799 217.848 9.60799H215.672V0.263992H236.024V71.304C236.024 73.1813 236.323 74.504 236.92 75.272C237.517 75.9547 238.627 76.296 240.248 76.296H242.808V85H225.656L224.504 76.04C221.944 79.88 218.915 82.6533 215.416 84.36C211.917 86.0667 207.48 86.92 202.104 86.92ZM205.176 76.936C210.637 76.936 214.904 75.1867 217.976 71.688C221.048 68.104 222.584 63.3253 222.584 57.352V50.824C222.584 44.5947 221.091 39.816 218.104 36.488C215.203 33.16 211.064 31.496 205.688 31.496C199.629 31.496 195.235 33.3733 192.504 37.128C189.859 40.8827 188.536 46.8987 188.536 55.176C188.536 63.0267 189.816 68.616 192.376 71.944C194.936 75.272 199.203 76.936 205.176 76.936ZM268.933 86.92C262.106 86.92 256.901 85.4267 253.317 82.44C249.818 79.4533 248.069 75.2293 248.069 69.768C248.069 63.624 249.989 59.144 253.829 56.328C257.754 53.4267 263.386 51.72 270.725 51.208L288.645 50.056V42.248C288.645 38.2373 287.792 35.336 286.085 33.544C284.378 31.752 281.477 30.856 277.381 30.856C274.565 30.856 272.218 31.112 270.341 31.624C268.549 32.0507 266.885 32.776 265.349 33.8V38.408H253.445V28.296C260.613 23.8587 268.677 21.64 277.637 21.64C294.021 21.64 302.213 28.8933 302.213 43.4V71.432C302.213 73.1387 302.512 74.376 303.109 75.144C303.792 75.912 304.858 76.296 306.309 76.296H309.125V85H294.405L292.741 76.936C290.01 80.4347 286.81 82.9947 283.141 84.616C279.557 86.152 274.821 86.92 268.933 86.92ZM272.005 77.704C277.125 77.704 281.178 76.5947 284.165 74.376C287.152 72.1573 288.645 68.7867 288.645 64.264V58.12L271.749 59.4C267.568 59.656 264.666 60.552 263.045 62.088C261.424 63.5387 260.613 65.8853 260.613 69.128C260.613 71.944 261.509 74.0773 263.301 75.528C265.093 76.9787 267.994 77.704 272.005 77.704ZM316.349 75.528H320.061C321.768 75.528 322.962 75.144 323.645 74.376C324.413 73.608 324.797 72.3707 324.797 70.664V14.472C324.797 12.8507 324.413 11.6987 323.645 11.016C322.962 10.248 321.768 9.864 320.061 9.864H316.349V0.263992H338.493V70.792C338.493 72.4133 338.877 73.608 339.645 74.376C340.413 75.144 341.608 75.528 343.229 75.528H346.941V85H316.349V75.528ZM354.099 75.528H357.811C359.518 75.528 360.712 75.144 361.395 74.376C362.163 73.608 362.547 72.3707 362.547 70.664V14.472C362.547 12.8507 362.163 11.6987 361.395 11.016C360.712 10.248 359.518 9.864 357.811 9.864H354.099V0.263992H376.243V70.792C376.243 72.4133 376.627 73.608 377.395 74.376C378.163 75.144 379.358 75.528 380.979 75.528H384.691V85H354.099V75.528Z" fill="white"/>
</svg>
