<svg width="73" height="73" viewBox="0 0 73 73" fill="none" xmlns="http://www.w3.org/2000/svg">
<path d="M42.9514 31.8767C42.381 31.3065 41.6075 30.9862 40.8009 30.9862C39.9944 30.9862 39.2209 31.3065 38.6505 31.8767L36.5 34.0242C35.9388 34.6052 35.2676 35.0686 34.5254 35.3875C33.7832 35.7063 32.9849 35.8741 32.1772 35.8811C31.3695 35.8881 30.5684 35.7342 29.8208 35.4283C29.0732 35.1225 28.3939 34.6707 27.8228 34.0996C27.2516 33.5284 26.7999 32.8492 26.494 32.1016C26.1881 31.3539 26.0342 30.5529 26.0412 29.7451C26.0482 28.9374 26.2161 28.1391 26.5349 27.397C26.8537 26.6548 27.3171 25.9835 27.8982 25.4223L45.0228 8.29167C49.0771 7.36951 53.3189 7.74903 57.1451 9.37625C60.9714 11.0035 64.1872 13.7956 66.3354 17.3555C68.4835 20.9155 69.4547 25.062 69.1107 29.2056C68.7667 33.3493 67.1252 37.279 64.4195 40.436L58.0076 46.93L42.9514 31.8767ZM9.61471 13.5902C12.7621 10.4433 16.8789 8.44977 21.2995 7.93204C25.72 7.41431 30.186 8.40261 33.9754 10.7372L23.5942 21.1214C21.3458 23.3653 20.0642 26.3996 20.0231 29.5759C19.9821 32.7522 21.1849 35.8186 23.3745 38.1199C25.5642 40.4211 28.5671 41.7748 31.7415 41.8916C34.9159 42.0084 38.0101 40.879 40.3629 38.7448L40.8009 38.3281L53.7067 51.2309L40.8009 64.1367C39.6601 65.2771 38.1131 65.9178 36.5 65.9178C34.8869 65.9178 33.3399 65.2771 32.1991 64.1367L9.61167 41.5492C5.90428 37.8415 3.82152 32.813 3.82152 27.5697C3.82152 22.3265 5.90732 17.298 9.61471 13.5902Z" fill="white"/>
</svg>
