<svg width="74" height="74" viewBox="0 0 74 74" fill="none" xmlns="http://www.w3.org/2000/svg">
<path d="M68.7074 36.6226L72.7554 29.6266C73.2419 28.7849 73.3743 27.7844 73.1233 26.8451C72.8723 25.9059 72.2586 25.1048 71.4171 24.6179L64.4138 20.5699V12.5032C64.4138 11.5308 64.0275 10.5981 63.3398 9.91051C62.6522 9.22288 61.7196 8.83657 60.7471 8.83657H52.6841L48.6398 1.8369C48.1513 0.996927 47.3517 0.383086 46.4141 0.128233C45.949 0.00215743 45.4636 -0.0303516 44.9858 0.0325896C44.5081 0.0955308 44.0476 0.252671 43.6311 0.4949L36.6278 4.5429L29.6244 0.491232C28.7823 0.00502399 27.7815 -0.126736 26.8422 0.124936C25.9029 0.376608 25.102 0.991099 24.6158 1.83323L20.5678 8.83657H12.5048C11.5323 8.83657 10.5997 9.22288 9.91204 9.91051C9.22441 10.5981 8.8381 11.5308 8.8381 12.5032V20.5662L1.83476 24.6142C1.41688 24.8546 1.05061 25.1752 0.757002 25.5575C0.46339 25.9399 0.248221 26.3765 0.123858 26.8422C-0.000504501 27.308 -0.0316104 27.7938 0.0323277 28.2716C0.0962659 28.7494 0.253987 29.2099 0.496432 29.6266L4.54443 36.6226L0.496432 43.6186C0.0123906 44.4611 -0.118938 45.4608 0.131079 46.3997C0.381096 47.3387 0.992181 48.1407 1.8311 48.6309L8.83443 52.6789V60.7419C8.83443 61.7144 9.22074 62.647 9.90837 63.3346C10.596 64.0223 11.5286 64.4086 12.5011 64.4086H20.5678L24.6158 71.4119C24.9404 71.9668 25.4039 72.4277 25.9606 72.7491C26.5174 73.0706 27.1482 73.2416 27.7911 73.2452C28.4291 73.2452 29.0634 73.0766 29.6281 72.7502L36.6241 68.7022L43.6274 72.7502C44.4694 73.2358 45.4695 73.3675 46.4085 73.1166C47.3474 72.8657 48.1485 72.2527 48.6361 71.4119L52.6804 64.4086H60.7434C61.7159 64.4086 62.6485 64.0223 63.3362 63.3346C64.0238 62.647 64.4101 61.7144 64.4101 60.7419V52.6789L71.4134 48.6309C71.8306 48.3898 72.1961 48.0689 72.4892 47.6865C72.7823 47.304 72.9971 46.8676 73.1214 46.4021C73.2457 45.9366 73.277 45.4512 73.2136 44.9735C73.1502 44.4959 72.9932 44.0355 72.7518 43.6186L68.7074 36.6226ZM27.4574 18.2526C28.9166 18.2531 30.3158 18.8332 31.3473 19.8653C32.3787 20.8975 32.9579 22.2971 32.9574 23.7562C32.9569 25.2154 32.3768 26.6146 31.3447 27.6461C30.3125 28.6775 28.9129 29.2567 27.4538 29.2562C25.9946 29.2558 24.5954 28.6756 23.5639 27.6435C22.5325 26.6114 21.9533 25.2117 21.9538 23.7526C21.9542 22.2934 22.5344 20.8942 23.5665 19.8627C24.5986 18.8313 25.9982 18.2521 27.4574 18.2526ZM28.5574 53.4526L22.6908 49.0562L44.6908 19.7229L50.5574 24.1192L28.5574 53.4526ZM45.7908 54.9192C45.0682 54.919 44.3529 54.7764 43.6854 54.4997C43.018 54.223 42.4116 53.8176 41.9009 53.3065C41.3902 52.7954 40.9851 52.1888 40.7089 51.5212C40.4326 50.8536 40.2905 50.1381 40.2908 49.4156C40.291 48.6931 40.4335 47.9777 40.7103 47.3102C40.987 46.6428 41.3924 46.0364 41.9035 45.5257C42.4146 45.015 43.0212 44.6099 43.6888 44.3337C44.3564 44.0574 45.0719 43.9153 45.7944 43.9156C47.2536 43.9161 48.6528 44.4962 49.6843 45.5283C50.7157 46.5605 51.2949 47.9601 51.2944 49.4192C51.2939 50.8784 50.7138 52.2776 49.6817 53.3091C48.6495 54.3405 47.2499 54.9197 45.7908 54.9192Z" fill="white"/>
</svg>
